<svg xmlns="http://www.w3.org/2000/svg" width="296" height="116.994" viewBox="0 0 296 116.994">
  <g id="Group_3408" data-name="Group 3408" transform="translate(-315 -76.006)">
    <text id="Text" transform="translate(315 188)" fill="#858585" font-size="20" font-family="SegoeUI, Segoe UI"><tspan x="0" y="0">© 2020 All Rights Resaved To FTC</tspan></text>
    <g id="Layer_2" data-name="Layer 2" transform="translate(315 76.006)">
      <g id="Layer_1" data-name="Layer 1">
        <text id="Fad_Tech_Corporation" data-name="Fad Tech Corporation" transform="translate(0.341 68.59)" fill="#023047" font-size="24" font-family="Arial-BoldMT, Arial" font-weight="700"><tspan x="0" y="0">Fad Tech Corporation</tspan></text>
        <g id="Group_1765" data-name="Group 1765">
          <rect id="Rectangle_503" data-name="Rectangle 503" width="18.339" height="5.939" rx="2.97" transform="translate(8.905 14.722)" fill="#86c4ec"/>
          <g id="Group_1764" data-name="Group 1764">
            <path id="Path_1674" data-name="Path 1674" d="M80.4,0H49A6.936,6.936,0,0,0,42.06,6.936V38.343a2.972,2.972,0,0,0,2.967,2.972h0A2.972,2.972,0,0,0,48,38.343V8.906a2.967,2.967,0,0,1,2.967-2.967H80.4a2.972,2.972,0,0,0,2.972-2.972h0A2.972,2.972,0,0,0,80.4,0Z" transform="translate(-42.06 0)" fill="#86c4ec"/>
            <rect id="Rectangle_504" data-name="Rectangle 504" width="5.939" height="32.41" rx="2.97" transform="translate(65.886 8.906)" fill="#86c4ec"/>
            <path id="Path_1675" data-name="Path 1675" d="M206.47,2.967h0a2.972,2.972,0,0,0,2.967,2.972h22.279a10.149,10.149,0,0,1,10.149,10.149V25.21A10.149,10.149,0,0,1,231.7,35.376H221.145a2.972,2.972,0,0,0-2.967,2.967h0a2.972,2.972,0,0,0,2.967,2.972h11.432A15.243,15.243,0,0,0,247.791,26.1V15.243A15.243,15.243,0,0,0,232.577,0h-23.14A2.972,2.972,0,0,0,206.47,2.967Z" transform="translate(-110.08 0)" fill="#023047"/>
            <rect id="Rectangle_505" data-name="Rectangle 505" width="41.315" height="5.939" rx="2.97" transform="translate(48.198 0)" fill="#86c4ec"/>
            <rect id="Rectangle_506" data-name="Rectangle 506" width="30.791" height="5.939" rx="2.97" transform="translate(95.161 38.344) rotate(-45)" fill="#fcbf00"/>
            <rect id="Rectangle_507" data-name="Rectangle 507" width="5.939" height="15.091" rx="2.97" transform="translate(118.687 13.145)" fill="#fcbf00"/>
            <rect id="Rectangle_508" data-name="Rectangle 508" width="15.091" height="5.939" rx="2.97" transform="translate(109.535 13.145)" fill="#fcbf00"/>
          </g>
        </g>
      </g>
    </g>
  </g>
</svg>
