<svg xmlns="http://www.w3.org/2000/svg" xmlns:xlink="http://www.w3.org/1999/xlink" width="24" height="24" viewBox="0 0 24 24">
  <defs>
    <clipPath id="clip-path">
      <rect width="24" height="24" fill="none"/>
    </clipPath>
  </defs>
  <g id="ico_24_social_media_tools_linkedin" data-name="ico / 24 / social media &amp; tools / linkedin" clip-path="url(#clip-path)">
    <rect id="Bounding_box" data-name="Bounding box" width="24" height="24" fill="rgba(255,255,255,0)"/>
    <path id="Icon_color" data-name="Icon color" d="M17,17H14.5a.5.5,0,0,1-.5-.5V10.78a2,2,0,0,0-2-2.03,1.973,1.973,0,0,0-.341.03A2.066,2.066,0,0,0,10,10.86V16.5a.5.5,0,0,1-.5.5H7a.5.5,0,0,1-.5-.5V6.5A.5.5,0,0,1,7,6H9.5a.5.5,0,0,1,.5.5v.42a4.46,4.46,0,0,1,3.95-1.07,4.609,4.609,0,0,1,3.55,4.56V16.5A.5.5,0,0,1,17,17ZM3.5,17H1a.5.5,0,0,1-.5-.5V6.5A.5.5,0,0,1,1,6H3.5a.5.5,0,0,1,.5.5v10A.5.5,0,0,1,3.5,17ZM2,4A2,2,0,1,1,4,2,2,2,0,0,1,2,4Z" transform="translate(3.5 3)"/>
  </g>
</svg>
