<svg id="Layer_1" data-name="Layer 1" xmlns="http://www.w3.org/2000/svg" width="76.589" height="23.661" viewBox="0 0 76.589 23.661">
  <rect id="Rectangle_497" data-name="Rectangle 497" width="10.199" height="3.303" rx="1.652" transform="translate(4.953 8.187)" fill="#86c4ec"/>
  <path id="Path_1672" data-name="Path 1672" d="M63.385,0H45.917A3.857,3.857,0,0,0,42.06,3.857V21.325a1.653,1.653,0,0,0,1.65,1.653h0a1.653,1.653,0,0,0,1.653-1.653V4.953a1.65,1.65,0,0,1,1.65-1.65H63.385A1.653,1.653,0,0,0,65.038,1.65h0A1.653,1.653,0,0,0,63.385,0Z" transform="translate(-42.06 0)" fill="#86c4ec"/>
  <rect id="Rectangle_498" data-name="Rectangle 498" width="3.303" height="18.025" rx="1.652" transform="translate(36.643 4.953)" fill="#86c4ec"/>
  <path id="Path_1673" data-name="Path 1673" d="M206.47,1.65h0A1.653,1.653,0,0,0,208.12,3.3h12.39a5.644,5.644,0,0,1,5.644,5.644v5.074a5.644,5.644,0,0,1-5.654,5.654h-5.869a1.653,1.653,0,0,0-1.65,1.65h0a1.653,1.653,0,0,0,1.65,1.653h6.358a8.478,8.478,0,0,0,8.461-8.461V8.478A8.478,8.478,0,0,0,220.99,0H208.12A1.653,1.653,0,0,0,206.47,1.65Z" transform="translate(-152.862 0)" fill="#023047"/>
  <rect id="Rectangle_499" data-name="Rectangle 499" width="22.978" height="3.303" rx="1.652" transform="translate(26.806 0)" fill="#86c4ec"/>
  <rect id="Rectangle_500" data-name="Rectangle 500" width="17.125" height="3.303" rx="1.652" transform="translate(52.924 21.325) rotate(-45)" fill="#fcbf00"/>
  <rect id="Rectangle_501" data-name="Rectangle 501" width="3.303" height="8.393" rx="1.652" transform="translate(66.008 7.31)" fill="#fcbf00"/>
  <rect id="Rectangle_502" data-name="Rectangle 502" width="8.393" height="3.303" rx="1.652" transform="translate(60.918 7.31)" fill="#fcbf00"/>
</svg>
