<svg xmlns="http://www.w3.org/2000/svg" xmlns:xlink="http://www.w3.org/1999/xlink" width="208.039" height="196.279" viewBox="0 0 208.039 196.279">
  <defs>
    <clipPath id="clip-path">
      <ellipse id="Ellipse_29" data-name="Ellipse 29" cx="57.522" cy="57.522" rx="57.522" ry="57.522" transform="matrix(1, -0.007, 0.007, 1, 0, 0.756)" fill="none"/>
    </clipPath>
  </defs>
  <g id="Group_3431" data-name="Group 3431" transform="translate(-137.802 -15015.723)">
    <ellipse id="Ellipse_81" data-name="Ellipse 81" cx="63.834" cy="63.834" rx="63.834" ry="63.834" transform="matrix(-0.259, -0.966, 0.966, -0.259, 170.845, 15212.002)" fill="#fcbf00"/>
    <g id="Group_2554" data-name="Group 2554" transform="translate(188.313 15115.352) rotate(-60)">
      <g id="Group_29" data-name="Group 29" transform="translate(0 0)" clip-path="url(#clip-path)">
        <g id="Group_21" data-name="Group 21" transform="translate(103.54 1.105)">
          <path id="Path_15" data-name="Path 15" d="M4.924,10.18A5.091,5.091,0,1,1,10.18,5.259,5.091,5.091,0,0,1,4.924,10.18Z" transform="translate(3.449 0)" fill="#141414"/>
          <path id="Path_16" data-name="Path 16" d="M9.583,7.491A5.091,5.091,0,1,1,7.491.6,5.091,5.091,0,0,1,9.583,7.491Z" transform="translate(2.551 27.222)" fill="#141414"/>
          <path id="Path_17" data-name="Path 17" d="M9.583,7.492A5.091,5.091,0,1,1,7.491.6,5.092,5.092,0,0,1,9.583,7.492Z" transform="translate(0.807 80.143)" fill="#141414"/>
          <path id="Path_18" data-name="Path 18" d="M9.584,7.491A5.092,5.092,0,1,1,7.492.6,5.093,5.093,0,0,1,9.584,7.491Z" transform="translate(1.653 54.447)" fill="#141414"/>
          <path id="Path_19" data-name="Path 19" d="M9.583,7.491A5.091,5.091,0,1,1,7.491.6,5.091,5.091,0,0,1,9.583,7.491Z" transform="translate(0 104.653)" fill="#141414"/>
        </g>
        <g id="Group_22" data-name="Group 22" transform="translate(88.275 0.603)">
          <path id="Path_20" data-name="Path 20" d="M4.924,10.18A5.091,5.091,0,1,1,10.18,5.258,5.092,5.092,0,0,1,4.924,10.18Z" transform="translate(3.449 0)" fill="#141414"/>
          <path id="Path_21" data-name="Path 21" d="M9.583,7.491A5.091,5.091,0,1,1,7.491.6,5.091,5.091,0,0,1,9.583,7.491Z" transform="translate(2.551 27.222)" fill="#141414"/>
          <path id="Path_22" data-name="Path 22" d="M9.583,7.491A5.091,5.091,0,1,1,7.491.6,5.091,5.091,0,0,1,9.583,7.491Z" transform="translate(0.807 80.143)" fill="#141414"/>
          <path id="Path_23" data-name="Path 23" d="M9.584,7.491A5.092,5.092,0,1,1,7.492.6,5.093,5.093,0,0,1,9.584,7.491Z" transform="translate(1.653 54.447)" fill="#141414"/>
          <path id="Path_24" data-name="Path 24" d="M9.583,7.491A5.091,5.091,0,1,1,7.491.6,5.091,5.091,0,0,1,9.583,7.491Z" transform="translate(0 104.653)" fill="#141414"/>
        </g>
        <g id="Group_23" data-name="Group 23" transform="translate(73.009 0.099)">
          <path id="Path_25" data-name="Path 25" d="M4.924,10.18A5.091,5.091,0,1,1,10.18,5.259,5.09,5.09,0,0,1,4.924,10.18Z" transform="translate(3.449 0)" fill="#141414"/>
          <path id="Path_26" data-name="Path 26" d="M9.583,7.491A5.091,5.091,0,1,1,7.491.6,5.091,5.091,0,0,1,9.583,7.491Z" transform="translate(2.551 27.223)" fill="#141414"/>
          <path id="Path_27" data-name="Path 27" d="M9.583,7.491A5.091,5.091,0,1,1,7.491.6,5.091,5.091,0,0,1,9.583,7.491Z" transform="translate(0.807 80.144)" fill="#141414"/>
          <path id="Path_28" data-name="Path 28" d="M9.584,7.491A5.092,5.092,0,1,1,7.492.6,5.093,5.093,0,0,1,9.584,7.491Z" transform="translate(1.653 54.448)" fill="#141414"/>
          <path id="Path_29" data-name="Path 29" d="M9.583,7.491A5.091,5.091,0,1,1,7.491.6,5.091,5.091,0,0,1,9.583,7.491Z" transform="translate(0 104.654)" fill="#141414"/>
        </g>
        <g id="Group_24" data-name="Group 24" transform="translate(57.743 -0.404)">
          <path id="Path_30" data-name="Path 30" d="M4.924,10.18A5.091,5.091,0,1,1,10.18,5.259,5.091,5.091,0,0,1,4.924,10.18Z" transform="translate(3.449 0)" fill="#141414"/>
          <path id="Path_31" data-name="Path 31" d="M9.583,7.491A5.091,5.091,0,1,1,7.491.6,5.091,5.091,0,0,1,9.583,7.491Z" transform="translate(2.551 27.223)" fill="#141414"/>
          <path id="Path_32" data-name="Path 32" d="M9.583,7.491A5.091,5.091,0,1,1,7.491.6,5.091,5.091,0,0,1,9.583,7.491Z" transform="translate(0.807 80.144)" fill="#141414"/>
          <path id="Path_33" data-name="Path 33" d="M9.583,7.492A5.091,5.091,0,1,1,7.491.6,5.094,5.094,0,0,1,9.583,7.492Z" transform="translate(1.654 54.447)" fill="#141414"/>
          <path id="Path_34" data-name="Path 34" d="M9.583,7.491A5.091,5.091,0,1,1,7.491.6,5.091,5.091,0,0,1,9.583,7.491Z" transform="translate(0 104.653)" fill="#141414"/>
        </g>
        <g id="Group_25" data-name="Group 25" transform="translate(42.478 -0.907)">
          <path id="Path_35" data-name="Path 35" d="M4.924,10.18A5.091,5.091,0,1,1,10.18,5.259,5.091,5.091,0,0,1,4.924,10.18Z" transform="translate(3.449 0)" fill="#141414"/>
          <path id="Path_36" data-name="Path 36" d="M9.583,7.492A5.091,5.091,0,1,1,7.491.6,5.092,5.092,0,0,1,9.583,7.492Z" transform="translate(2.551 27.222)" fill="#141414"/>
          <path id="Path_37" data-name="Path 37" d="M9.583,7.491A5.091,5.091,0,1,1,7.491.6,5.091,5.091,0,0,1,9.583,7.491Z" transform="translate(0.807 80.144)" fill="#141414"/>
          <path id="Path_38" data-name="Path 38" d="M9.583,7.492A5.091,5.091,0,1,1,7.491.6,5.092,5.092,0,0,1,9.583,7.492Z" transform="translate(1.654 54.447)" fill="#141414"/>
          <path id="Path_39" data-name="Path 39" d="M9.583,7.491A5.091,5.091,0,1,1,7.491.6,5.091,5.091,0,0,1,9.583,7.491Z" transform="translate(0 104.653)" fill="#141414"/>
        </g>
        <g id="Group_26" data-name="Group 26" transform="translate(27.212 -1.409)">
          <path id="Path_40" data-name="Path 40" d="M4.924,10.18A5.091,5.091,0,1,1,10.18,5.259,5.091,5.091,0,0,1,4.924,10.18Z" transform="translate(3.449 0)" fill="#141414"/>
          <path id="Path_41" data-name="Path 41" d="M9.583,7.491A5.091,5.091,0,1,1,7.491.6,5.09,5.09,0,0,1,9.583,7.491Z" transform="translate(2.551 27.222)" fill="#141414"/>
          <path id="Path_42" data-name="Path 42" d="M9.583,7.491A5.091,5.091,0,1,1,7.491.6,5.091,5.091,0,0,1,9.583,7.491Z" transform="translate(0.807 80.144)" fill="#141414"/>
          <path id="Path_43" data-name="Path 43" d="M9.583,7.491A5.091,5.091,0,1,1,7.491.6,5.091,5.091,0,0,1,9.583,7.491Z" transform="translate(1.654 54.447)" fill="#141414"/>
          <path id="Path_44" data-name="Path 44" d="M9.583,7.491A5.091,5.091,0,1,1,7.491.6,5.091,5.091,0,0,1,9.583,7.491Z" transform="translate(0 104.653)" fill="#141414"/>
        </g>
        <g id="Group_27" data-name="Group 27" transform="translate(11.947 -1.912)">
          <path id="Path_45" data-name="Path 45" d="M4.924,10.18A5.091,5.091,0,1,1,10.18,5.259,5.091,5.091,0,0,1,4.924,10.18Z" transform="translate(3.449 0)" fill="#141414"/>
          <path id="Path_46" data-name="Path 46" d="M9.583,7.491A5.091,5.091,0,1,1,7.491.6,5.091,5.091,0,0,1,9.583,7.491Z" transform="translate(2.551 27.222)" fill="#141414"/>
          <path id="Path_47" data-name="Path 47" d="M9.583,7.491A5.091,5.091,0,1,1,7.491.6,5.091,5.091,0,0,1,9.583,7.491Z" transform="translate(0.807 80.143)" fill="#141414"/>
          <path id="Path_48" data-name="Path 48" d="M9.583,7.491A5.091,5.091,0,1,1,7.491.6,5.091,5.091,0,0,1,9.583,7.491Z" transform="translate(1.654 54.447)" fill="#141414"/>
          <path id="Path_49" data-name="Path 49" d="M9.583,7.491A5.091,5.091,0,1,1,7.491.6,5.091,5.091,0,0,1,9.583,7.491Z" transform="translate(0 104.653)" fill="#141414"/>
        </g>
        <g id="Group_28" data-name="Group 28" transform="translate(-3.319 -2.415)">
          <path id="Path_50" data-name="Path 50" d="M4.924,10.18A5.091,5.091,0,1,1,10.18,5.259,5.092,5.092,0,0,1,4.924,10.18Z" transform="translate(3.449 0)" fill="#141414"/>
          <path id="Path_51" data-name="Path 51" d="M9.583,7.491A5.091,5.091,0,1,1,7.491.6,5.091,5.091,0,0,1,9.583,7.491Z" transform="translate(2.551 27.222)" fill="#141414"/>
          <path id="Path_52" data-name="Path 52" d="M9.583,7.491A5.091,5.091,0,1,1,7.491.6,5.091,5.091,0,0,1,9.583,7.491Z" transform="translate(0.807 80.143)" fill="#141414"/>
          <path id="Path_53" data-name="Path 53" d="M9.583,7.491A5.091,5.091,0,1,1,7.491.6,5.091,5.091,0,0,1,9.583,7.491Z" transform="translate(1.654 54.447)" fill="#141414"/>
          <path id="Path_54" data-name="Path 54" d="M9.583,7.491A5.091,5.091,0,1,1,7.491.6,5.091,5.091,0,0,1,9.583,7.491Z" transform="translate(0 104.653)" fill="#141414"/>
        </g>
      </g>
    </g>
  </g>
</svg>
