<svg xmlns="http://www.w3.org/2000/svg" width="24.608" height="101.472" viewBox="0 0 24.608 101.472">
  <g id="Shape_11" data-name="Shape 11" transform="translate(63 78)">
    <path id="Path_223" data-name="Path 223" d="M24.6,82.593c-.195-5.4-5.554-7.495-10.737-9.52C9.845,71.5,5.287,69.721,5.187,66.969s4.318-4.854,8.214-6.712c5.022-2.393,10.216-4.868,10.019-10.266S17.867,42.5,12.684,40.475c-4.021-1.571-8.579-3.351-8.679-6.1s4.318-4.854,8.214-6.712c5.022-2.393,10.216-4.868,10.019-10.266S16.685,9.906,11.5,7.883c-4.021-1.57-8.579-3.349-8.677-6.1A1.668,1.668,0,0,0,1.346,0,1.667,1.667,0,0,0,0,1.888C.2,7.285,5.555,9.377,10.738,11.4c4.021,1.57,8.577,3.349,8.677,6.1S15.1,22.352,11.2,24.209C6.18,26.6.987,29.078,1.182,34.475s5.555,7.493,10.738,9.517c4.02,1.571,8.577,3.351,8.677,6.1s-4.317,4.855-8.213,6.713C7.362,59.2,2.169,61.674,2.365,67.071S7.919,74.566,13.1,76.59c4.022,1.572,8.58,3.353,8.679,6.106s-4.317,4.859-8.214,6.718C8.543,91.809,3.35,94.285,3.546,99.685a1.668,1.668,0,0,0,1.479,1.785A1.669,1.669,0,0,0,6.37,99.583c-.1-2.753,4.317-4.858,8.213-6.717C19.605,90.471,24.8,88,24.6,82.593Z" transform="translate(-63 -78)" fill="#e0e0e0"/>
  </g>
</svg>
